<svg xmlns="http://www.w3.org/2000/svg" x="0px" y="0px"
width="64" height="64"
viewBox="0 0 226 226"
style=" fill:#000000;"><g transform=""><g fill="none" fill-rule="nonzero" stroke="none" stroke-width="1" stroke-linecap="butt" stroke-linejoin="miter" stroke-miterlimit="10" stroke-dasharray="" stroke-dashoffset="0" font-family="none" font-weight="none" font-size="none" text-anchor="none" style="mix-blend-mode: normal"><path d="M0,226v-226h226v226z" fill="none"></path><g fill="#000000"><g id="surface1"><path d="M88.28125,0c-48.67883,0 -88.28125,39.60242 -88.28125,88.28125c0,48.67883 39.60242,88.28125 88.28125,88.28125c19.47705,0 37.47815,-6.34521 52.08594,-17.06311c0,0 9.8075,9.60059 10.27649,9.76611c0,0.08276 -0.01379,0.15173 -0.01379,0.2345c0,4.71753 1.83459,9.15918 5.17273,12.48352l36.52637,36.52637c3.44848,3.44849 7.95911,5.15894 12.48352,5.15894c4.52441,0 9.04883,-1.71045 12.48352,-5.15894l1.21387,-1.22766c3.33814,-3.32434 5.17273,-7.7522 5.17273,-12.46973c0,-4.71753 -1.83459,-9.15918 -5.17273,-12.48352l-36.52637,-36.52637c-3.50366,-3.50366 -8.11084,-5.20032 -12.70422,-5.13135c-0.17932,-0.48279 -9.77991,-10.30408 -9.77991,-10.30408c10.71789,-14.60779 17.06311,-32.60889 17.06311,-52.08594c0,-48.67883 -39.60242,-88.28125 -88.28125,-88.28125zM88.28125,7.0625c44.78894,0 81.21875,36.42981 81.21875,81.21875c0,44.78894 -36.42981,81.21875 -81.21875,81.21875c-44.78894,0 -81.21875,-36.42981 -81.21875,-81.21875c0,-44.78894 36.42981,-81.21875 81.21875,-81.21875zM88.28125,21.1875c-17.91834,0 -34.77454,6.97974 -47.45117,19.64258c-26.15332,26.16711 -26.15332,68.73523 0,94.88855c12.67664,12.67664 29.53284,19.65637 47.45117,19.65637c17.91834,0 34.77454,-6.97973 47.45117,-19.64258c26.15332,-26.16711 26.15332,-68.73523 0,-94.90234c-12.67664,-12.66284 -29.53284,-19.64258 -47.45117,-19.64258zM88.28125,28.25c16.02857,0 31.10535,6.24866 42.44397,17.58728c23.40833,23.39453 23.40833,61.49341 0,84.88794c-11.33862,11.33862 -26.4154,17.58728 -42.44397,17.58728c-16.02856,0 -31.10535,-6.24866 -42.44397,-17.58728c-23.40832,-23.39453 -23.40832,-61.47961 0,-84.88794c11.33862,-11.33862 26.41541,-17.58728 42.44397,-17.58728zM87.60535,38.84375c-12.84216,0.15173 -25.09119,5.28308 -34.29175,14.46985c-1.37939,1.39319 -1.37939,3.61402 0,5.0072c0.6897,0.6759 1.6001,1.03455 2.5105,1.03455c0.89661,0 1.80701,-0.35864 2.4967,-1.03455c8.99365,-9.00745 21.422,-13.46289 34.12622,-12.20764c1.94495,0.16553 3.66919,-1.22766 3.8623,-3.17261c0.19311,-1.94495 -1.22766,-3.66919 -3.17261,-3.8623c-1.84839,-0.17932 -3.69678,-0.26208 -5.53137,-0.2345zM112.50342,45.46484c-1.3518,-0.19311 -2.77258,0.42761 -3.53125,1.68286c-1.00696,1.66907 -0.46899,3.83472 1.21387,4.84167c2.89673,1.76563 5.61414,3.88989 8.05566,6.33142c0.6897,0.6897 1.5863,1.03455 2.4967,1.03455c0.9104,0 1.80701,-0.34485 2.5105,-1.03455c1.3656,-1.37939 1.3656,-3.61401 0,-4.99341c-2.85535,-2.84155 -6.02795,-5.32446 -9.42127,-7.37976c-0.41382,-0.24829 -0.86902,-0.41382 -1.32422,-0.48279zM38.84375,84.75c-1.94495,0 -3.53125,1.57251 -3.53125,3.53125c0,1.95874 1.5863,3.53125 3.53125,3.53125h7.0625c1.94495,0 3.53125,-1.57251 3.53125,-3.53125c0,-1.95874 -1.5863,-3.53125 -3.53125,-3.53125zM130.65625,84.75c-1.94495,0 -3.53125,1.57251 -3.53125,3.53125c0,1.95874 1.5863,3.53125 3.53125,3.53125h7.0625c1.94495,0 3.53125,-1.57251 3.53125,-3.53125c0,-1.95874 -1.5863,-3.53125 -3.53125,-3.53125zM49.05127,100.62683c-0.4552,-0.01379 -0.93799,0.06897 -1.37939,0.24829l-6.55212,2.64844c-1.807,0.73108 -2.67602,2.78638 -1.94495,4.59339c0.55176,1.37939 1.87598,2.22082 3.26916,2.22082c0.44141,0 0.89661,-0.08277 1.32422,-0.26209l6.55212,-2.64844c1.80701,-0.73108 2.67603,-2.78638 1.94495,-4.59338c-0.55176,-1.35181 -1.83459,-2.19324 -3.21399,-2.20703zM127.29053,101.30273c-1.37939,0 -2.68982,0.81384 -3.25537,2.15186c-0.75867,1.80701 0.06897,3.8761 1.87598,4.63477l6.49695,2.75879c0.44141,0.19312 0.9104,0.27588 1.37939,0.27588c1.37939,0 2.67602,-0.80005 3.25537,-2.15186c0.75867,-1.79321 -0.08277,-3.8623 -1.87598,-4.62097l-6.49695,-2.75879c-0.4552,-0.19311 -0.9242,-0.28967 -1.37939,-0.28967zM58.3208,114.71045c-0.9104,0 -1.80701,0.34485 -2.4967,1.03455l-4.99341,4.99341c-1.37939,1.37939 -1.37939,3.61402 0,4.99341c0.6897,0.6897 1.5863,1.03455 2.49671,1.03455c0.9104,0 1.807,-0.34485 2.4967,-1.03455l4.99341,-4.99341c1.37939,-1.37939 1.37939,-3.61401 0,-4.99341c-0.6897,-0.6897 -1.6001,-1.03455 -2.4967,-1.03455zM118.2417,114.71045c-0.89661,0 -1.80701,0.34485 -2.4967,1.03455c-1.37939,1.37939 -1.37939,3.61401 0,4.99341l4.99341,4.99341c0.6897,0.6897 1.5863,1.03455 2.49671,1.03455c0.9104,0 1.807,-0.34485 2.4967,-1.03455c1.37939,-1.37939 1.37939,-3.61402 0,-4.99341l-4.99341,-4.99341c-0.6897,-0.6897 -1.6001,-1.03455 -2.4967,-1.03455zM71.72852,123.75928c-1.37939,0 -2.68982,0.80005 -3.25537,2.15186l-2.75879,6.49695c-0.75867,1.79321 0.08277,3.8761 1.87598,4.63477c0.4552,0.19311 0.9104,0.27588 1.37939,0.27588c1.3656,0 2.67603,-0.81384 3.25537,-2.15186l2.75879,-6.49695c0.75867,-1.79321 -0.08276,-3.8761 -1.87598,-4.63477c-0.4552,-0.19311 -0.9242,-0.27588 -1.37939,-0.27588zM104.21326,124.03516c-0.4552,0 -0.93799,0.08277 -1.37939,0.26209c-1.8208,0.73108 -2.68982,2.78638 -1.95874,4.59338l2.64844,6.55212c0.55176,1.37939 1.87598,2.20703 3.28296,2.20703c0.44141,0 0.88281,-0.08277 1.32422,-0.26209c1.80701,-0.73108 2.67602,-2.78638 1.94495,-4.59338l-2.64844,-6.55212c-0.55176,-1.3518 -1.83459,-2.17944 -3.21399,-2.20703zM88.28125,127.125c-1.94495,0 -3.53125,1.57251 -3.53125,3.53125v7.0625c0,1.95874 1.5863,3.53125 3.53125,3.53125c1.94495,0 3.53125,-1.57251 3.53125,-3.53125v-7.0625c0,-1.95874 -1.5863,-3.53125 -3.53125,-3.53125zM155.05774,145.92615l6.62109,6.63489c-1.66907,0.82764 -3.26916,1.86218 -4.66235,3.25537l-1.21387,1.20007c-1.37939,1.37939 -2.41394,2.9657 -3.25537,4.64856l-6.62109,-6.6073c3.26916,-2.81396 6.31763,-5.86243 9.13159,-9.13159zM169.5,157.69238c2.71741,0 5.43482,1.03455 7.50391,3.10364l36.52637,36.52637c2.00012,2.00012 3.08984,4.66236 3.08984,7.49011c0,2.82776 -1.10352,5.48999 -3.10364,7.49011l-1.21387,1.21387c-4.13818,4.12439 -10.84204,4.12439 -14.98023,0l-36.52637,-36.52637c-2.00012,-2.00012 -3.10364,-4.66236 -3.10364,-7.49011c0,-2.82776 1.10352,-5.48999 3.10364,-7.49011l1.21387,-1.21387c2.06909,-2.06909 4.7865,-3.10364 7.49011,-3.10364z"></path></g></g><path d="" fill="none"></path><path d="" fill="none"></path></g></g></svg>